<svg data-v-d3f97b9e="" xmlns="http://www.w3.org/2000/svg" viewBox="0 0 512 90"><!----><!----><!----><g data-v-d3f97b9e="" id="3d548eba-14af-4e08-9aa1-284d5248dc4f" fill="black" transform="matrix(6.036216979508284,0,0,6.036216979508284,142.80715611664584,-27.645872351946814)"><path d="M1.36 4.58L1.36 5.32L4.75 5.32L4.75 11.68C4.75 13.05 4.13 13.78 2.97 13.78C1.93 13.78 1.33 13.15 1.11 12.29L0.36 12.47C0.62 13.69 1.57 14.52 2.94 14.52C4.54 14.52 5.59 13.52 5.59 11.80L5.59 4.58ZM12.68 14.35L13.48 14.35L13.48 7.18L12.68 7.18L12.68 12.21C12.68 13.29 11.75 13.80 10.75 13.80C9.56 13.80 8.90 13.10 8.90 11.63L8.90 7.18L8.11 7.18L8.11 11.79C8.11 13.54 9.02 14.52 10.54 14.52C11.77 14.52 12.36 13.89 12.63 13.22L12.68 13.22ZM18.12 14.52C19.70 14.52 20.66 13.72 20.66 12.39C20.66 11.24 19.98 10.61 18.52 10.39L17.95 10.30C16.93 10.14 16.41 9.81 16.41 8.99C16.41 8.18 17.01 7.70 18.03 7.70C19.03 7.70 19.61 8.16 19.99 8.61L20.52 8.12C19.99 7.48 19.26 7.01 18.07 7.01C16.69 7.01 15.64 7.69 15.64 9.03C15.64 10.32 16.53 10.84 17.84 11.03L18.42 11.13C19.46 11.28 19.89 11.72 19.89 12.47C19.89 13.34 19.26 13.83 18.17 13.83C17.22 13.83 16.53 13.45 15.95 12.68L15.36 13.15C16.00 14.03 16.87 14.52 18.12 14.52ZM25.37 14.35L25.37 13.65L23.86 13.65L23.86 7.88L25.48 7.88L25.48 7.18L23.86 7.18L23.86 5.18L23.13 5.18L23.13 6.64C23.13 7.04 23.02 7.18 22.62 7.18L21.81 7.18L21.81 7.88L23.06 7.88L23.06 13.47C23.06 14 23.37 14.35 23.94 14.35ZM30.79 14.35L33.89 14.35C36.40 14.35 37.84 12.71 37.84 9.46C37.84 6.22 36.40 4.58 33.89 4.58L30.79 4.58ZM31.63 13.61L31.63 5.32L33.91 5.32C35.83 5.32 36.95 6.65 36.95 8.82L36.95 10.11C36.95 12.28 35.83 13.61 33.91 13.61ZM40.82 14.35L40.82 9.45C40.82 8.53 41.68 7.97 42.87 7.97L43.50 7.97L43.50 7.18L43.02 7.18C41.79 7.18 41.16 7.80 40.88 8.47L40.82 8.47L40.82 7.18L40.03 7.18L40.03 14.35ZM50.74 14.35L50.74 13.65L49.77 13.65L49.77 9.41C49.77 7.90 48.83 7.01 47.17 7.01C45.86 7.01 45.07 7.63 44.67 8.46L45.18 8.88C45.57 8.13 46.19 7.71 47.14 7.71C48.36 7.71 48.97 8.32 48.97 9.49L48.97 10.33L47.32 10.33C45.25 10.33 44.41 11.13 44.41 12.40C44.41 13.73 45.28 14.52 46.77 14.52C47.89 14.52 48.62 14.01 48.94 13.22L49.01 13.22L49.01 13.47C49.06 14 49.31 14.35 49.92 14.35ZM46.89 13.83C45.91 13.83 45.25 13.38 45.25 12.56L45.25 12.22C45.25 11.42 45.86 10.93 47.29 10.93L48.97 10.93L48.97 12.26C48.97 13.23 48.05 13.83 46.89 13.83ZM53.49 14.35L54.46 14.35L56.25 8.32L56.28 8.32L58.09 14.35L59.07 14.35L61.08 7.18L60.31 7.18L58.60 13.64L58.58 13.64L56.66 7.18L55.92 7.18L54.01 13.64L53.98 13.64L52.26 7.18L51.48 7.18Z"></path></g><!----><g data-v-d3f97b9e="" id="d9ee301a-7a27-4219-b418-391ddc38b1a9" transform="matrix(1.8746093729515172,0,0,1.8746093729515172,-31.066341860984195,-47.73547138387609)" stroke="none" fill="black"><path d="M62.84 25.995l-19.587 19.68-7.29 26.82H16.666v1.5l18.895.01s18.792-5.166 28.187-7.744l19.588-19.68-1.064-1.059-18.586 18.676-2.162-6.521-7.288-2.44-2.427-7.322-6.498-2.176 18.593-18.681zm-18.4 21.031l6.18 2.067 2.426 7.322 7.289 2.44 2.06 6.216-16.431 4.508-6.012-6.04zM39.497 65.21l4.805 4.826-6.61 1.813z" style="line-height:normal;text-indent:0;text-align:start;text-decoration-line:none;text-decoration-style:solid;text-decoration-color:#000;text-transform:none;block-progression:tb;isolation:auto;mix-blend-mode:normal" color="#000" font-weight="400" font-family="sans-serif" white-space="normal" overflow="visible" stroke-width="1.5"></path></g><!----><g data-v-d3f97b9e="" id="81cbef93-a083-4bc9-bf8d-e78b2040a740" fill="black" transform="matrix(1.3004625019020666,0,0,1.3004625019020666,143.80979374402241,52.613373938184694)"><path d="M4.34 14.78L4.34 14.78L4.34 14.78Q4.94 14.78 5.37 14.58L5.37 14.58L5.37 14.58Q5.80 14.38 6.07 14.04L6.07 14.04L6.07 14.04Q6.34 13.69 6.48 13.25L6.48 13.25L6.48 13.25Q6.61 12.81 6.61 12.32L6.61 12.32L6.61 12.15L7.78 12.15L7.78 12.32L7.78 12.32Q7.78 13.06 7.56 13.71L7.56 13.71L7.56 13.71Q7.34 14.36 6.90 14.85L6.90 14.85L6.90 14.85Q6.47 15.33 5.82 15.60L5.82 15.60L5.82 15.60Q5.18 15.88 4.34 15.88L4.34 15.88L4.34 15.88Q2.72 15.88 1.81 14.85L1.81 14.85L1.81 14.85Q0.90 13.83 0.90 11.87L0.90 11.87L0.90 9.69L0.90 9.69Q0.90 7.78 1.81 6.73L1.81 6.73L1.81 6.73Q2.72 5.68 4.34 5.68L4.34 5.68L4.34 5.68Q5.18 5.68 5.82 5.96L5.82 5.96L5.82 5.96Q6.47 6.23 6.90 6.71L6.90 6.71L6.90 6.71Q7.34 7.20 7.56 7.85L7.56 7.85L7.56 7.85Q7.78 8.50 7.78 9.24L7.78 9.24L7.78 9.41L6.61 9.41L6.61 9.24L6.61 9.24Q6.59 8.76 6.46 8.32L6.46 8.32L6.46 8.32Q6.33 7.87 6.05 7.53L6.05 7.53L6.05 7.53Q5.78 7.18 5.36 6.98L5.36 6.98L5.36 6.98Q4.94 6.78 4.34 6.78L4.34 6.78L4.34 6.78Q3.21 6.78 2.64 7.60L2.64 7.60L2.64 7.60Q2.07 8.43 2.07 9.77L2.07 9.77L2.07 11.79L2.07 11.79Q2.07 13.23 2.64 14.01L2.64 14.01L2.64 14.01Q3.21 14.78 4.34 14.78ZM16.79 15.68L16.79 5.88L17.96 5.88L17.96 14.59L23.09 14.59L23.09 15.68L16.79 15.68ZM32.31 6.97L32.31 5.88L38.53 5.88L38.53 6.97L36.01 6.97L36.01 14.59L38.53 14.59L38.53 15.68L32.31 15.68L32.31 14.59L34.83 14.59L34.83 6.97L32.31 6.97ZM51.04 14.78L51.04 14.78L51.04 14.78Q51.65 14.78 52.07 14.58L52.07 14.58L52.07 14.58Q52.50 14.38 52.77 14.04L52.77 14.04L52.77 14.04Q53.05 13.69 53.18 13.25L53.18 13.25L53.18 13.25Q53.31 12.81 53.31 12.32L53.31 12.32L53.31 12.15L54.49 12.15L54.49 12.32L54.49 12.32Q54.49 13.06 54.26 13.71L54.26 13.71L54.26 13.71Q54.04 14.36 53.61 14.85L53.61 14.85L53.61 14.85Q53.17 15.33 52.53 15.60L52.53 15.60L52.53 15.60Q51.88 15.88 51.04 15.88L51.04 15.88L51.04 15.88Q49.42 15.88 48.51 14.85L48.51 14.85L48.51 14.85Q47.60 13.83 47.60 11.87L47.60 11.87L47.60 9.69L47.60 9.69Q47.60 7.78 48.51 6.73L48.51 6.73L48.51 6.73Q49.42 5.68 51.04 5.68L51.04 5.68L51.04 5.68Q51.88 5.68 52.53 5.96L52.53 5.96L52.53 5.96Q53.17 6.23 53.61 6.71L53.61 6.71L53.61 6.71Q54.04 7.20 54.26 7.85L54.26 7.85L54.26 7.85Q54.49 8.50 54.49 9.24L54.49 9.24L54.49 9.41L53.31 9.41L53.31 9.24L53.31 9.24Q53.30 8.76 53.16 8.32L53.16 8.32L53.16 8.32Q53.03 7.87 52.76 7.53L52.76 7.53L52.76 7.53Q52.49 7.18 52.07 6.98L52.07 6.98L52.07 6.98Q51.65 6.78 51.04 6.78L51.04 6.78L51.04 6.78Q49.91 6.78 49.34 7.60L49.34 7.60L49.34 7.60Q48.78 8.43 48.78 9.77L48.78 9.77L48.78 11.79L48.78 11.79Q48.78 13.23 49.34 14.01L49.34 14.01L49.34 14.01Q49.91 14.78 51.04 14.78ZM64.69 11.31L64.69 15.68L63.52 15.68L63.52 5.88L64.69 5.88L64.69 10.22L65.02 10.22L68.78 5.88L70.24 5.88L70.24 5.96L66.18 10.70L66.18 10.86L70.41 15.60L70.41 15.68L68.92 15.68L65.02 11.31L64.69 11.31ZM94.43 6.97L94.43 5.88L97.65 5.88L97.65 5.88Q99.47 5.88 100.31 6.75L100.31 6.75L100.31 6.75Q101.15 7.62 101.15 9.52L101.15 9.52L101.15 12.04L101.15 12.04Q101.15 13.94 100.31 14.81L100.31 14.81L100.31 14.81Q99.47 15.68 97.65 15.68L97.65 15.68L94.43 15.68L94.43 14.57L95.27 14.57L95.27 6.97L94.43 6.97ZM96.45 14.59L97.48 14.59L97.48 14.59Q98.13 14.59 98.59 14.46L98.59 14.46L98.59 14.46Q99.06 14.34 99.37 14.04L99.37 14.04L99.37 14.04Q99.68 13.73 99.83 13.23L99.83 13.23L99.83 13.23Q99.97 12.73 99.97 11.96L99.97 11.96L99.97 9.60L99.97 9.60Q99.97 8.83 99.83 8.33L99.83 8.33L99.83 8.33Q99.68 7.83 99.37 7.53L99.37 7.53L99.37 7.53Q99.06 7.22 98.59 7.10L98.59 7.10L98.59 7.10Q98.13 6.97 97.48 6.97L97.48 6.97L96.45 6.97L96.45 14.59ZM116.33 12.15L116.33 15.68L115.15 15.68L115.15 12.40L115.15 12.40Q115.15 12.04 114.98 11.84L114.98 11.84L114.98 11.84Q114.81 11.65 114.39 11.65L114.39 11.65L111.34 11.65L111.34 15.68L110.17 15.68L110.17 5.88L113.67 5.88L113.67 5.88Q114.42 5.88 114.98 6.10L114.98 6.10L114.98 6.10Q115.54 6.31 115.91 6.68L115.91 6.68L115.91 6.68Q116.28 7.04 116.47 7.53L116.47 7.53L116.47 7.53Q116.66 8.01 116.66 8.54L116.66 8.54L116.66 8.96L116.66 8.96Q116.66 9.51 116.36 10.05L116.36 10.05L116.36 10.05Q116.06 10.60 115.43 10.89L115.43 10.89L115.43 11.06L115.43 11.06Q115.85 11.13 116.09 11.40L116.09 11.40L116.09 11.40Q116.33 11.66 116.33 12.15L116.33 12.15ZM111.34 6.97L111.34 10.56L113.53 10.56L113.53 10.56Q114.52 10.56 115.00 10.13L115.00 10.13L115.00 10.13Q115.49 9.70 115.49 8.88L115.49 8.88L115.49 8.62L115.49 8.62Q115.49 7.88 115.00 7.43L115.00 7.43L115.00 7.43Q114.52 6.97 113.53 6.97L113.53 6.97L111.34 6.97ZM131.64 15.68L130.93 13.24L126.73 13.24L126.01 15.68L124.75 15.68L127.72 5.88L129.93 5.88L132.90 15.68L131.64 15.68ZM128.91 6.38L128.74 6.38L127.05 12.15L130.61 12.15L128.91 6.38ZM143.46 12.07L143.46 10.98L147.83 10.98L147.83 15.68L146.73 15.68L146.73 14.50L146.57 14.50L146.57 14.50Q146.33 15.12 145.73 15.50L145.73 15.50L145.73 15.50Q145.12 15.88 144.33 15.88L144.33 15.88L144.33 15.88Q142.74 15.88 141.84 14.85L141.84 14.85L141.84 14.85Q140.94 13.83 140.94 11.87L140.94 11.87L140.94 9.69L140.94 9.69Q140.94 7.78 141.85 6.73L141.85 6.73L141.85 6.73Q142.76 5.68 144.38 5.68L144.38 5.68L144.38 5.68Q145.22 5.68 145.87 5.96L145.87 5.96L145.87 5.96Q146.51 6.23 146.94 6.71L146.94 6.71L146.94 6.71Q147.38 7.20 147.60 7.85L147.60 7.85L147.60 7.85Q147.83 8.50 147.83 9.24L147.83 9.24L147.83 9.41L146.65 9.41L146.65 9.24L146.65 9.24Q146.65 8.76 146.52 8.32L146.52 8.32L146.52 8.32Q146.38 7.87 146.11 7.53L146.11 7.53L146.11 7.53Q145.84 7.18 145.41 6.98L145.41 6.98L145.41 6.98Q144.98 6.78 144.38 6.78L144.38 6.78L144.38 6.78Q143.25 6.78 142.68 7.60L142.68 7.60L142.68 7.60Q142.11 8.43 142.11 9.77L142.11 9.77L142.11 11.79L142.11 11.79Q142.11 13.23 142.68 14.01L142.68 14.01L142.68 14.01Q143.25 14.78 144.41 14.78L144.41 14.78L144.41 14.78Q145.46 14.78 146.06 14.11L146.06 14.11L146.06 14.11Q146.65 13.44 146.65 12.24L146.65 12.24L146.65 12.07L143.46 12.07ZM172.27 6.97L172.27 5.88L175.49 5.88L175.49 5.88Q177.31 5.88 178.15 6.75L178.15 6.75L178.15 6.75Q178.99 7.62 178.99 9.52L178.99 9.52L178.99 12.04L178.99 12.04Q178.99 13.94 178.15 14.81L178.15 14.81L178.15 14.81Q177.31 15.68 175.49 15.68L175.49 15.68L172.27 15.68L172.27 14.57L173.11 14.57L173.11 6.97L172.27 6.97ZM174.29 14.59L175.32 14.59L175.32 14.59Q175.97 14.59 176.44 14.46L176.44 14.46L176.44 14.46Q176.90 14.34 177.21 14.04L177.21 14.04L177.21 14.04Q177.52 13.73 177.67 13.23L177.67 13.23L177.67 13.23Q177.81 12.73 177.81 11.96L177.81 11.96L177.81 9.60L177.81 9.60Q177.81 8.83 177.67 8.33L177.67 8.33L177.67 8.33Q177.52 7.83 177.21 7.53L177.21 7.53L177.21 7.53Q176.90 7.22 176.44 7.10L176.44 7.10L176.44 7.10Q175.97 6.97 175.32 6.97L175.32 6.97L174.29 6.97L174.29 14.59ZM194.17 12.15L194.17 15.68L192.99 15.68L192.99 12.40L192.99 12.40Q192.99 12.04 192.82 11.84L192.82 11.84L192.82 11.84Q192.65 11.65 192.23 11.65L192.23 11.65L189.18 11.65L189.18 15.68L188.01 15.68L188.01 5.88L191.51 5.88L191.51 5.88Q192.26 5.88 192.82 6.10L192.82 6.10L192.82 6.10Q193.38 6.31 193.75 6.68L193.75 6.68L193.75 6.68Q194.12 7.04 194.31 7.53L194.31 7.53L194.31 7.53Q194.50 8.01 194.50 8.54L194.50 8.54L194.50 8.96L194.50 8.96Q194.50 9.51 194.20 10.05L194.20 10.05L194.20 10.05Q193.90 10.60 193.27 10.89L193.27 10.89L193.27 11.06L193.27 11.06Q193.69 11.13 193.93 11.40L193.93 11.40L193.93 11.40Q194.17 11.66 194.17 12.15L194.17 12.15ZM189.18 6.97L189.18 10.56L191.37 10.56L191.37 10.56Q192.36 10.56 192.84 10.13L192.84 10.13L192.84 10.13Q193.33 9.70 193.33 8.88L193.33 8.88L193.33 8.62L193.33 8.62Q193.33 7.88 192.84 7.43L192.84 7.43L192.84 7.43Q192.36 6.97 191.37 6.97L191.37 6.97L189.18 6.97ZM209.48 15.68L208.77 13.24L204.57 13.24L203.85 15.68L202.59 15.68L205.56 5.88L207.77 5.88L210.74 15.68L209.48 15.68ZM206.75 6.38L206.58 6.38L204.89 12.15L208.45 12.15L206.75 6.38ZM226.37 5.88L225.37 15.68L223.23 15.68L222.32 6.38L222.15 6.38L221.24 15.68L219.10 15.68L218.11 5.88L219.17 5.88L220.11 15.18L220.28 15.18L221.16 5.88L223.31 5.88L224.20 15.18L224.36 15.18L225.30 5.88L226.37 5.88Z"></path></g></svg>