<svg data-v-29081953="" xmlns="http://www.w3.org/2000/svg" viewBox="0 0 300 300"><!----><defs data-v-29081953=""><linearGradient data-v-29081953="" gradientTransform="rotate(25)" id="54a89a04-29c5-483c-a978-fb439a1cd22c" x1="0%" y1="0%" x2="100%" y2="0%"><stop data-v-29081953="" offset="0%" stop-color="#01648B" stop-opacity="1"></stop><stop data-v-29081953="" offset="100%" stop-color="#5BD0A4" stop-opacity="1"></stop></linearGradient></defs><rect data-v-29081953="" fill="url(#54a89a04-29c5-483c-a978-fb439a1cd22c)" x="0" y="0" width="300px" height="300px" class="logo-background-square"></rect><!----><defs data-v-29081953=""><!----></defs><g data-v-29081953="" id="c4d42127-2275-4995-aee2-c37ffaeef10d" fill="#ffffff" stroke="none" transform="matrix(3.299835098877734,0,0,3.299835098877734,-14.995052966332018,-14.991761237822658)"><path d="M62.84 25.995l-19.587 19.68-7.29 26.82H16.666v1.5l18.895.01s18.792-5.166 28.187-7.744l19.588-19.68-1.064-1.059-18.586 18.676-2.162-6.521-7.288-2.44-2.427-7.322-6.498-2.176 18.593-18.681zm-18.4 21.031l6.18 2.067 2.426 7.322 7.289 2.44 2.06 6.216-16.431 4.508-6.012-6.04zM39.497 65.21l4.805 4.826-6.61 1.813z" style="line-height:normal;text-indent:0;text-align:start;text-decoration-line:none;text-decoration-style:solid;text-decoration-color:#000;text-transform:none;block-progression:tb;isolation:auto;mix-blend-mode:normal" color="#000" font-weight="400" font-family="sans-serif" white-space="normal" overflow="visible" stroke-width="1.5"></path></g><!----></svg>